<?xml version="1.0" encoding="UTF-8" standalone="no"?>
<!-- Created with Inkscape (http://www.inkscape.org/) -->

<svg
   width="10mm"
   height="10mm"
   viewBox="0 0 10 10"
   version="1.1"
   id="svg1"
   inkscape:version="1.4.2 (f4327f4, 2025-05-13)"
   sodipodi:docname="favicon - copia - copia.svg"
   inkscape:export-filename="favicon_tr.png"
   inkscape:export-xdpi="600"
   inkscape:export-ydpi="600"
   xml:space="preserve"
   xmlns:inkscape="http://www.inkscape.org/namespaces/inkscape"
   xmlns:sodipodi="http://sodipodi.sourceforge.net/DTD/sodipodi-0.dtd"
   xmlns:xlink="http://www.w3.org/1999/xlink"
   xmlns="http://www.w3.org/2000/svg"
   xmlns:svg="http://www.w3.org/2000/svg"><sodipodi:namedview
     id="namedview1"
     pagecolor="#ffffff"
     bordercolor="#000000"
     borderopacity="0.25"
     inkscape:showpageshadow="2"
     inkscape:pageopacity="0.0"
     inkscape:pagecheckerboard="0"
     inkscape:deskcolor="#d1d1d1"
     inkscape:document-units="mm"
     inkscape:zoom="13.828183"
     inkscape:cx="19.959238"
     inkscape:cy="17.211227"
     inkscape:window-width="2880"
     inkscape:window-height="1676"
     inkscape:window-x="-12"
     inkscape:window-y="-12"
     inkscape:window-maximized="1"
     inkscape:current-layer="layer1"
     inkscape:export-bgcolor="#ffffff00" /><defs
     id="defs1"><color-profile
       name="Adobe-RGB-1998"
       xlink:href="../../../../../Windows/system32/spool/drivers/color/AdobeRGB1998.icc"
       id="color-profile1" /><color-profile
       name="Apple-RGB"
       xlink:href="../../../../../Windows/system32/spool/drivers/color/AppleRGB.icc"
       id="color-profile2" /></defs><g
     inkscape:label="Capa 1"
     inkscape:groupmode="layer"
     id="layer1"><ellipse
       style="fill:none;fill-opacity:0;stroke-width:0.264583"
       id="path2"
       cx="-4.3816013"
       cy="-5.3765497"
       rx="3.6927905"
       ry="3.5779886" /><ellipse
       style="fill:#00ffff;fill-opacity:0;stroke-width:0.264583"
       id="path3"
       cx="-2.3534362"
       cy="-1.4350222"
       rx="3.6927905"
       ry="7.0603089" /><ellipse
       style="fill:#00ffff;fill-opacity:0;stroke-width:0.264583"
       id="path4"
       cx="8.3039951"
       cy="-1.8368285"
       rx="3.4440532"
       ry="4.2093983" /><ellipse
       style="fill:#00ffff;fill-opacity:0;stroke-width:0.264583"
       id="path5"
       cx="16.18705"
       cy="10.351293"
       rx="1.2245523"
       ry="6.3714986" /><ellipse
       style="fill:#00ffff;fill-opacity:0;stroke-width:0.264583"
       id="path6"
       cx="3.6927905"
       cy="2.5639062"
       rx="2.1238327"
       ry="1.5306903" /><path
       style="fill:#0c183d;fill-opacity:1;stroke-width:1.04835"
       d="m 5.0749426,9.6933797 c -0.026271,-0.0066 -0.075722,-0.023797 -0.1098809,-0.038317 l -0.062104,-0.026397 -0.071665,0.017518 c -0.048611,0.011888 -0.1054621,0.017329 -0.1767661,0.01692 -0.1006937,-5.693e-4 -0.1334005,-0.0065 -0.2675369,-0.048832 -0.020936,-0.00661 -0.047993,-0.0043 -0.1003266,0.00849 -0.0861,0.021009 -0.2327875,0.023189 -0.3009791,0.00451 -0.02627,-0.00724 -0.083018,-0.028402 -0.12609,-0.047083 C 3.8027324,9.5555332 3.7569304,9.5434248 3.6923839,9.5360026 3.4509822,9.5082215 3.2736489,9.4388108 3.1422528,9.3206731 3.1080245,9.2898938 3.0782726,9.2728163 3.0427023,9.2635175 2.9686579,9.2441546 2.8694061,9.1855628 2.7965065,9.1181869 2.7411226,9.0669964 2.7219694,9.0557896 2.6521037,9.033722 2.4389998,8.966387 2.3803943,8.9393188 2.2975376,8.8699416 2.1642388,8.7583236 2.0892688,8.6664815 2.0545183,8.5722304 c -0.00912,-0.024615 -0.023294,-0.052742 -0.031607,-0.062502 -0.019143,-0.022508 -0.099247,-0.063467 -0.1241185,-0.063467 -0.034795,0 -0.1484651,-0.048182 -0.1981366,-0.083993 C 1.5810368,8.2760423 1.5431172,8.2422877 1.4998017,8.1834852 1.4673766,8.1394653 1.4379706,8.1119883 1.4010689,8.0912101 1.247297,8.0046275 1.173542,7.9400769 1.0823488,7.8122819 1.0244909,7.7312032 0.92776028,7.5212801 0.91312232,7.4450362 0.90274369,7.3908475 0.89766975,7.3821567 0.86151243,7.3561892 0.81159039,7.3203359 0.76347146,7.2574774 0.71951132,7.1706799 0.67907678,7.0908486 0.63150302,6.9497114 0.62353561,6.8859313 0.62039059,6.8606977 0.60713955,6.8218567 0.59410865,6.7996213 0.5582973,6.738503 0.54060128,6.6815559 0.53215164,6.6001669 0.52491808,6.5301796 0.52229723,6.5240153 0.47949343,6.4764525 0.39878157,6.3866829 0.36157905,6.2900703 0.34978836,6.1396261 L 0.34161136,6.035401 0.29420536,5.986747 C 0.20956212,5.8998598 0.11864047,5.733931 0.07846906,5.5930137 0.05004851,5.4932976 0.01574675,5.2211025 0.01566288,5.0944955 0.01547733,4.8341413 0.06558493,4.6337327 0.16460293,4.4988498 c 0.0319535,-0.043538 0.0335784,-0.04925 0.0275714,-0.097334 -0.0140059,-0.1120909 0.0217216,-0.24247 0.0999594,-0.3648506 0.0289342,-0.045257 0.0380234,-0.070409 0.0431498,-0.1194364 0.007758,-0.074633 0.0409902,-0.1773762 0.0864358,-0.2676123 0.0321003,-0.063747 0.0334002,-0.070414 0.0334002,-0.1710507 0,-0.1136815 0.0180524,-0.2197544 0.048947,-0.2875107 C 0.59791423,2.9851994 0.64145707,2.9108696 0.71691673,2.8277371 0.75948993,2.7808361 0.81414003,2.7283791 0.83836931,2.711165 0.92316961,2.65091 0.95081871,2.620228 0.97582901,2.5586005 1.0198279,2.4501853 1.1243434,2.3175994 1.2118611,2.2591771 1.2803181,2.2134781 1.2937161,2.1978021 1.3343211,2.115825 1.3780471,2.027554 1.4571071,1.9431629 1.5396022,1.896698 1.6328212,1.844195 1.6590386,1.824406 1.6590386,1.806563 c 0,-0.00982 0.017266,-0.052361 0.038369,-0.09452 0.041116,-0.082137 0.1181251,-0.1640505 0.1929525,-0.2052292 0.021302,-0.011721 0.052134,-0.028558 0.068531,-0.037412 0.040141,-0.021687 0.1103789,-0.036452 0.1734053,-0.036452 0.050918,0 0.053288,-0.00126 0.1256281,-0.067213 0.088008,-0.080222 0.1640769,-0.1194902 0.2610633,-0.1347584 0.064799,-0.010201 0.081906,-0.01807 0.1786071,-0.082118 C 2.778831,1.0950534 2.8115791,1.0670524 2.8338155,1.0324003 2.8675095,0.9798886 2.9622919,0.88660878 3.0263352,0.842927 3.1059982,0.7885935 3.2868366,0.7016302 3.3645984,0.68026153 c 0.042039,-0.0115528 0.1063207,-0.0293441 0.1428407,-0.0395361 0.1310974,-0.0365851 0.214147,-0.0434727 0.3668412,-0.030424 l 0.140052,0.0119689 0.073898,-0.033874 c 0.1302695,-0.0597174 0.1670328,-0.0666606 0.3178557,-0.0600351 0.1193296,0.005242 0.1399578,0.003764 0.191099,-0.013705 0.089685,-0.0306315 0.2283248,-0.0346424 0.3327879,-0.009624 0.1053364,0.0252252 0.1096135,0.0251424 0.200531,-0.003889 0.1399652,-0.0446992 0.4315647,-0.0759796 0.5702739,-0.0611749 0.039418,0.004204 0.1159152,0.007915 0.1700024,0.00824 0.2576929,0.001552 0.5611649,0.12280519 0.6758933,0.27006433 0.043538,0.055884 0.1120709,0.0840582 0.2044666,0.0840582 0.1261763,0 0.2916434,0.0590605 0.3734057,0.13328003 0.048727,0.044234 0.043768,0.0427381 0.1900341,0.0572877 0.1400731,0.0139337 0.2867467,0.063011 0.3419114,0.11440407 0.040508,0.037741 0.1141121,0.075528 0.170255,0.087411 0.1203392,0.025469 0.240628,0.1021221 0.3823094,0.2436185 0.092349,0.092234 0.1271597,0.1436254 0.1660301,0.2451493 0.00703,0.018429 0.028892,0.035527 0.075103,0.058799 0.08023,0.0404 0.1703053,0.134388 0.2179912,0.2274439 0.012591,0.024581 0.045141,0.063278 0.072315,0.085994 0.1490731,0.124605 0.1818013,0.1673434 0.2316867,0.3025453 0.029742,0.080614 0.03208,0.083731 0.1017938,0.1361237 0.093376,0.070176 0.2163558,0.2008531 0.2560681,0.2721013 0.017381,0.031188 0.042007,0.073905 0.054703,0.094927 0.053885,0.089152 0.1021714,0.2318322 0.1568267,0.4634135 0.011783,0.049924 0.02754,0.1015216 0.035014,0.1146589 0.096542,0.1696798 0.1130668,0.230779 0.1111117,0.4108615 -0.00168,0.1537252 -0.00933,0.1272844 0.08089,0.2793087 0.016972,0.028607 0.042112,0.094632 0.055866,0.1467229 0.013744,0.052091 0.033253,0.1195233 0.043349,0.149849 0.010064,0.030326 0.030108,0.1098702 0.04446,0.1767659 0.025013,0.1165262 0.026103,0.133052 0.025968,0.3939436 C 9.9381125,5.2204683 9.934882,5.286373 9.920431,5.364804 9.89742,5.4893228 9.868979,5.5948832 9.846502,5.6391273 9.832936,5.6658263 9.828481,5.6953093 9.828418,5.7585638 9.8282492,5.9550969 9.784954,6.0795857 9.6652038,6.2278001 l -0.043853,0.054276 -0.00576,0.105104 c -0.00671,0.1220245 -0.024846,0.1824395 -0.081918,0.2723148 -0.032467,0.051128 -0.03948,0.070553 -0.03969,0.109882 -6.09e-4,0.113417 -0.041975,0.2373006 -0.1415953,0.4240419 -0.068876,0.1291032 -0.1445538,0.2198645 -0.2604312,0.3123219 -0.059808,0.04772 -0.063572,0.053088 -0.068939,0.098471 -0.00546,0.045592 -0.023682,0.092967 -0.081477,0.2110995 -0.015997,0.032687 -0.057711,0.084863 -0.1115426,0.1394954 -0.076991,0.078144 -0.097401,0.092904 -0.1949884,0.141065 l -0.1089952,0.05379 -0.017528,0.049765 c -0.065867,0.1870472 -0.2421952,0.3452336 -0.4254129,0.381652 -0.060553,0.012035 -0.062471,0.013377 -0.1072203,0.074883 -0.044313,0.060909 -0.1195895,0.1268935 -0.1777883,0.1558508 -0.015767,0.00786 -0.053371,0.021365 -0.083573,0.030045 -0.051159,0.014709 -0.0566,0.019122 -0.07959,0.064483 -0.02515,0.049629 -0.098691,0.1295541 -0.1760387,0.1913183 -0.05357,0.042783 -0.1406676,0.086803 -0.2421251,0.1223782 -0.1445799,0.050698 -0.1895727,0.059661 -0.3359474,0.066885 -0.1222871,0.00608 -0.1547217,0.011112 -0.2209852,0.034563 -0.07047,0.02495 -0.07958,0.031115 -0.098419,0.066623 -0.0337,0.063518 -0.074889,0.107102 -0.1474267,0.156024 -0.1304263,0.087956 -0.2214287,0.1228646 -0.391474,0.150154 -0.099446,0.015956 -0.2702667,0.013303 -0.3695038,-0.00576 C 5.4727245,9.6539185 5.4923096,9.654412 5.394557,9.6820295 5.2933708,9.7106596 5.1626469,9.7153246 5.0749091,9.6934253 Z M 5.9036339,9.0630012 c 0.080964,-0.00807 0.1137336,-0.027571 0.1509299,-0.089916 0.064295,-0.1077643 0.1655782,-0.1857599 0.2798821,-0.2155317 0.029783,-0.00776 0.068163,-0.024761 0.085282,-0.037783 0.094382,-0.07179 0.2047905,-0.099876 0.320864,-0.081634 0.097601,0.015337 0.1189459,0.014289 0.2027221,-0.00996 C 7.0610721,8.5941255 7.0647843,8.5917775 7.097307,8.5307645 7.164024,8.4055841 7.309546,8.2864222 7.4253574,8.26213 c 0.045288,-0.00954 0.060007,-0.017675 0.080324,-0.044639 0.013681,-0.018157 0.050677,-0.060584 0.0822,-0.094288 0.076477,-0.081749 0.1523367,-0.1192374 0.3031375,-0.1497882 0.022204,-0.00451 0.028326,-0.013367 0.041514,-0.060091 0.017025,-0.060311 0.078563,-0.1731977 0.1176596,-0.2158347 0.05292,-0.057711 0.1719385,-0.1319591 0.2327099,-0.1451766 0.041399,-0.00901 0.1119315,-0.060321 0.116801,-0.084989 0.0021,-0.010829 0.00629,-0.040697 0.00933,-0.066391 0.00692,-0.059745 0.082232,-0.2125157 0.133541,-0.2708015 0.021345,-0.024249 0.05768,-0.056055 0.080743,-0.070679 0.1155262,-0.073269 0.2497507,-0.2843555 0.2497507,-0.392776 0,-0.10637 0.036576,-0.2270894 0.090011,-0.2970979 0.029637,-0.038827 0.031346,-0.045731 0.037279,-0.1501614 0.010064,-0.1780321 0.03968,-0.2575751 0.1339896,-0.3603435 0.03471,-0.037825 0.065102,-0.078545 0.067524,-0.09049 0.00241,-0.011945 0.00681,-0.064714 0.00965,-0.1172663 0.0065,-0.1177751 0.02429,-0.1862057 0.074527,-0.2859329 l 0.038861,-0.077151 0.00975,-0.2063581 c 0.00923,-0.1951001 0.0086,-0.2138658 -0.012033,-0.343977 C 9.3054807,4.6297474 9.2941272,4.5869776 9.269596,4.5381704 9.2524242,4.5040112 9.230692,4.4502648 9.2213094,4.4187338 9.2118742,4.3872028 9.1929412,4.3463553 9.179145,4.3279621 9.0862305,4.2040914 9.049376,4.0685313 9.0654596,3.9098495 l 0.00796,-0.078995 -0.051442,-0.1039631 C 8.9648084,3.6113463 8.9632254,3.605926 8.9493348,3.4775747 8.9384216,3.3767379 8.927435,3.3372273 8.8696504,3.191002 8.824058,3.075625 8.7963712,3.0427866 8.6771549,2.9626715 8.5759374,2.8946488 8.5533991,2.8730959 8.504494,2.7975193 8.4490576,2.7118488 8.4175549,2.6481801 8.4040419,2.5945271 8.3948164,2.5579348 8.3849935,2.544583 8.3490144,2.5198328 8.2844784,2.4754344 8.1933355,2.3807831 8.1607342,2.3243142 8.1326596,2.2756921 8.1090929,2.2553931 8.0216863,2.2045481 7.9664911,2.1724415 7.8762991,2.0758214 7.8468428,2.0172419 7.8345143,1.9927307 7.8175102,1.948629 7.8090501,1.9192398 7.8005585,1.8898506 7.7852841,1.8551504 7.7750418,1.842129 7.7508042,1.8113193 7.6396915,1.7604128 7.5679346,1.7472446 7.4887533,1.7327135 7.4279955,1.7048497 7.3394641,1.642465 L 7.263019,1.5886336 7.1579154,1.5827419 C 7.0070716,1.5742858 6.9317975,1.5462889 6.8153497,1.4553316 l -0.065469,-0.05114 -0.08263,-2.173e-4 C 6.4831354,1.4034893 6.2359028,1.3005366 6.1391995,1.184083 6.0507771,1.0776003 6.0664342,1.0856101 5.8912017,1.057211 5.7646762,1.0367054 5.7007735,1.0315487 5.5731829,1.0315487 c -0.1540108,0 -0.1614447,9.016e-4 -0.2095217,0.025412 -0.1371503,0.069921 -0.2901758,0.1030541 -0.374713,0.081133 -0.057355,-0.014873 -0.1003684,-0.027224 -0.1481003,-0.042533 -0.041703,-0.013374 -0.045582,-0.012806 -0.1287008,0.01889 -0.1049558,0.040021 -0.1995906,0.049446 -0.2948137,0.029362 -0.065071,-0.013724 -0.065323,-0.013694 -0.1240147,0.014061 -0.032342,0.015297 -0.090996,0.036644 -0.1303362,0.047436 -0.062387,0.017113 -0.084999,0.018653 -0.1769642,0.012045 -0.057994,-0.00416 -0.1616355,-0.00701 -0.2303187,-0.00632 -0.1146457,0.00115 -0.1310878,0.00364 -0.2006537,0.030397 C 3.4170076,1.2945196 3.3771726,1.3187796 3.340792,1.371916 3.322363,1.398833 3.288491,1.44398 3.265522,1.4722426 3.227761,1.5187126 3.19501,1.5464186 3.0138371,1.6851734 2.9434201,1.7391014 2.8358664,1.7835464 2.7417263,1.7976178 2.6740033,1.8077428 2.6624093,1.8128158 2.6162911,1.8525208 2.5077264,1.9459978 2.42195,1.9847957 2.2995047,1.9958112 l -0.061841,0.00557 -0.017601,0.047775 c -0.022288,0.06049 -0.092883,0.1655275 -0.1473707,0.2192401 -0.023084,0.022759 -0.075732,0.057985 -0.1170023,0.07828 -0.071717,0.035271 -0.07612,0.039346 -0.099729,0.09221 -0.02667,0.059729 -0.106826,0.1659933 -0.1612769,0.2138019 -0.018598,0.016326 -0.055562,0.041525 -0.082158,0.055997 -0.046295,0.025199 -0.049398,0.02947 -0.073174,0.100868 -0.01366,0.041005 -0.041137,0.099526 -0.061066,0.130047 -0.043748,0.067 -0.1458474,0.1703242 -0.1918791,0.1941868 -0.066129,0.034281 -0.131308,0.1061058 -0.1819555,0.200505 -0.046211,0.086124 -0.04815,0.092623 -0.038003,0.1269172 0.035748,0.120737 -0.015578,0.3692316 -0.099027,0.4794169 -0.017308,0.022851 -0.023336,0.046505 -0.0281794,0.110587 -0.006811,0.090045 -0.0279071,0.1727475 -0.0496076,0.1944469 -0.00776,0.00775 -0.0140999,0.017626 -0.0140999,0.021943 -3.06e-6,0.00432 -0.0166164,0.034857 -0.036923,0.067867 -0.0352138,0.057245 -0.0367129,0.062984 -0.0325619,0.124214 0.008382,0.1235822 -0.033505,0.2505659 -0.12580103,0.3814167 -0.0388516,0.055073 -0.0422587,0.064913 -0.0485067,0.1399356 -0.004508,0.054533 -0.001153,0.134459 0.0102737,0.246519 l 0.0170146,0.1658218 0.0472488,0.090771 c 0.0259884,0.049924 0.0593676,0.1005428 0.0741911,0.1124851 0.0447223,0.03604 0.12616168,0.1558687 0.15083863,0.221937 0.017581,0.047085 0.0242904,0.087528 0.0276971,0.1672111 l 0.00451,0.105104 0.035874,0.038219 c 0.093302,0.099419 0.14367829,0.2185622 0.14367829,0.3398146 0,0.024416 0.010166,0.055892 0.028557,0.088496 0.041451,0.073447 0.066989,0.1549145 0.066989,0.2136814 0,0.065238 0.031786,0.1303299 0.084193,0.1723904 0.052795,0.042374 0.1513072,0.1814261 0.1794908,0.2533402 0.01279,0.032624 0.027205,0.083909 0.032048,0.1139601 0.011437,0.071014 0.017234,0.080838 0.102402,0.1733202 0.056118,0.06094 0.085755,0.08457 0.1354437,0.107995 0.086142,0.040602 0.1220154,0.070396 0.202633,0.168283 0.057649,0.069998 0.074244,0.084339 0.103377,0.089319 0.1123581,0.019227 0.1675198,0.045812 0.2876105,0.1386274 0.1525516,0.1178998 0.2403943,0.2205126 0.2786944,0.3255553 0.025485,0.069904 0.054985,0.089727 0.1612717,0.1084185 0.04295,0.00755 0.1015114,0.024447 0.1301223,0.037551 0.07394,0.033851 0.2009357,0.1184836 0.2563804,0.1708599 0.03123,0.029501 0.058739,0.046557 0.08112,0.050289 0.097224,0.016208 0.1996809,0.069422 0.2789659,0.1448662 0.073164,0.069631 0.125128,0.088449 0.2446883,0.088627 0.1061488,1.614e-4 0.191182,0.017403 0.2614513,0.053014 0.058508,0.029647 0.080449,0.030769 0.1612506,0.00828 0.038936,-0.01084 0.094183,-0.017266 0.1481015,-0.017224 0.073709,5.87e-5 0.1000533,0.00493 0.184419,0.034144 l 0.098429,0.034071 0.068781,-0.024227 c 0.051484,-0.018137 0.094424,-0.025329 0.170713,-0.028578 0.113242,-0.00482 0.1637165,0.00629 0.2538498,0.056086 0.027508,0.015191 0.057271,0.027614 0.06614,0.027614 0.00891,0 0.044397,-0.01171 0.078972,-0.02601 0.055761,-0.023074 0.07526,-0.026041 0.1727384,-0.026272 0.1085653,-2.642e-4 0.1745532,0.011186 0.2331681,0.040445 0.031252,0.0156 0.1057965,0.029668 0.1346962,0.025422 0.010515,-0.00157 0.043748,-0.00524 0.073856,-0.00828 z M 4.7978502,7.6560287 C 4.7092443,7.6513112 4.4210487,7.6153216 4.3577121,7.6009802 4.0794224,7.5379958 3.7219786,7.4351031 3.6560379,7.3990025 3.6429022,7.3917689 3.574739,7.3638725 3.5045714,7.3369197 3.3744239,7.2869242 3.160083,7.1827232 3.1483553,7.1637492 3.1447865,7.1579882 3.1390254,7.1141519 3.1354922,7.0663685 3.1271106,6.9514314 3.0925002,6.6024446 3.0871531,6.5781829 3.0848487,6.5676682 3.0784554,6.505326 3.073042,6.4396363 3.0675868,6.3739466 3.0588687,6.2686033 3.053648,6.2055408 3.0338136,5.9660414 3.0169667,5.6907629 3.0216633,5.6831579 3.0324403,5.6657249 3.0517723,5.6796879 3.16615,5.7875131 3.47435,6.0780504 3.8817734,6.3793884 4.1479716,6.5136851 4.2260936,6.5530991 4.4474263,6.6439013 4.530326,6.670549 4.6846441,6.720157 4.9167679,6.744583 5.0674042,6.727065 5.2501741,6.7058155 5.3323944,6.6740927 5.4427912,6.5822191 5.5634836,6.4817775 5.6104096,6.321612 5.5721063,6.1408509 5.5340525,5.9613394 5.3728269,5.7892085 5.0271687,5.5590708 4.9188581,5.4869586 4.6493944,5.3201272 4.5207576,5.2455407 4.4734564,5.2181171 4.4218675,5.1871218 4.4060983,5.1766625 4.3903313,5.1662001 4.3295589,5.1282344 4.2710446,5.0922857 4.1432245,5.0137595 3.9401983,4.8695945 3.8623946,4.8021111 3.7207562,4.6792592 3.5728699,4.5196713 3.5015102,4.41267 3.3448176,4.1777149 3.2985869,4.0274767 3.2990407,3.7547006 3.29924,3.6351164 3.303339,3.5901427 3.3202697,3.521133 3.3735988,3.3039173 3.4700421,3.1365147 3.6371091,2.9711973 c 0.055761,-0.055179 0.1196,-0.1110759 0.1418584,-0.1242139 0.022256,-0.013137 0.059515,-0.037994 0.082799,-0.055235 C 3.9644198,2.7157202 4.2435115,2.5929128 4.4157667,2.547974 4.627906,2.49263 4.9152912,2.455233 5.1284547,2.455233 c 0.1088945,0 0.4104606,0.022743 0.5150074,0.038839 0.1714847,0.026402 0.3592857,0.072126 0.5466381,0.133089 l 0.2074386,0.067499 0.00524,0.035555 c 0.00294,0.019555 0.00943,0.053512 0.014488,0.07546 0.015138,0.065513 0.10431,0.8281446 0.1207427,1.0326339 0.00566,0.071076 0.00472,0.078828 -0.010378,0.078828 -0.00923,0 -0.041588,-0.020424 -0.072021,-0.045386 C 6.3573291,3.7911158 6.1784023,3.6696594 6.0467589,3.5942099 5.9761321,3.5537282 5.9055283,3.5129466 5.8898755,3.503586 5.8742238,3.4942243 5.7747434,3.4483845 5.6688106,3.4017186 5.4003773,3.2834661 5.2458098,3.2436475 5.012927,3.2327543 c -0.1424436,-0.00667 -0.2350572,0.00361 -0.3203168,0.0355 -0.1873188,0.070085 -0.2607164,0.2552133 -0.1766687,0.4456043 0.020055,0.045433 0.170798,0.2061252 0.232148,0.247472 0.022089,0.014887 0.070879,0.049426 0.1084279,0.076753 0.072703,0.052915 0.2265729,0.143111 0.6196876,0.3632527 0.08934,0.050029 0.1925322,0.1061665 0.2293185,0.1247503 0.036786,0.018584 0.090535,0.04907 0.1194365,0.067746 0.028903,0.018676 0.1084479,0.067939 0.1767663,0.1094712 0.06832,0.041533 0.1328133,0.08318 0.143323,0.092548 0.010515,0.00937 0.057806,0.043175 0.1051046,0.075125 0.047301,0.03195 0.1044568,0.074414 0.1270297,0.094366 0.022571,0.019951 0.067713,0.059924 0.1003266,0.088827 0.091426,0.081039 0.2141699,0.2178811 0.2571069,0.2866475 0.021323,0.034159 0.046536,0.070706 0.056013,0.081217 0.046505,0.051581 0.1134536,0.2142258 0.1590261,0.3863608 0.033054,0.1248344 0.034344,0.1359351 0.03513,0.3015932 8.46e-4,0.1770427 -0.00262,0.2031168 -0.052302,0.3932136 C 6.8898481,6.6663544 6.8460903,6.7621707 6.7542775,6.8934913 6.5555077,7.1777786 6.2259761,7.4128641 5.8724793,7.5225605 5.6407034,7.5944874 5.5968577,7.6059872 5.4823064,7.6249101 5.2860368,7.6573353 5.0373491,7.6686464 4.7978051,7.6560251 Z"
       id="path7" /></g><g
     inkscape:groupmode="layer"
     id="layer2"
     inkscape:label="Capa 2"
     style="fill:#5555ff" /></svg>
