<?xml version="1.0" encoding="UTF-8" standalone="no"?>
<!-- Created with Inkscape (http://www.inkscape.org/) -->

<svg
   width="10mm"
   height="10mm"
   viewBox="0 0 10 10"
   version="1.1"
   id="svg1"
   inkscape:version="1.4.2 (f4327f4, 2025-05-13)"
   sodipodi:docname="favicon - copia - copia - copia.svg"
   inkscape:export-filename="snowball.png"
   inkscape:export-xdpi="600"
   inkscape:export-ydpi="600"
   xml:space="preserve"
   xmlns:inkscape="http://www.inkscape.org/namespaces/inkscape"
   xmlns:sodipodi="http://sodipodi.sourceforge.net/DTD/sodipodi-0.dtd"
   xmlns:xlink="http://www.w3.org/1999/xlink"
   xmlns="http://www.w3.org/2000/svg"
   xmlns:svg="http://www.w3.org/2000/svg"><sodipodi:namedview
     id="namedview1"
     pagecolor="#ffffff"
     bordercolor="#000000"
     borderopacity="0.25"
     inkscape:showpageshadow="2"
     inkscape:pageopacity="0.0"
     inkscape:pagecheckerboard="0"
     inkscape:deskcolor="#d1d1d1"
     inkscape:document-units="mm"
     inkscape:zoom="13.828183"
     inkscape:cx="19.92308"
     inkscape:cy="17.247385"
     inkscape:window-width="3840"
     inkscape:window-height="2054"
     inkscape:window-x="-11"
     inkscape:window-y="-11"
     inkscape:window-maximized="1"
     inkscape:current-layer="layer1"
     inkscape:export-bgcolor="#ffffff00" /><defs
     id="defs1"><color-profile
       name="Adobe-RGB-1998"
       xlink:href="../../../../../Windows/system32/spool/drivers/color/AdobeRGB1998.icc"
       id="color-profile1" /><color-profile
       name="Apple-RGB"
       xlink:href="../../../../../Windows/system32/spool/drivers/color/AppleRGB.icc"
       id="color-profile2" /></defs><g
     inkscape:label="Capa 1"
     inkscape:groupmode="layer"
     id="layer1"><ellipse
       style="fill:none;fill-opacity:0;stroke-width:0.264583"
       id="path2"
       cx="-4.3816013"
       cy="-5.3765497"
       rx="3.6927905"
       ry="3.5779886" /><ellipse
       style="fill:#00ffff;fill-opacity:0;stroke-width:0.264583"
       id="path3"
       cx="-2.3534362"
       cy="-1.4350222"
       rx="3.6927905"
       ry="7.0603089" /><ellipse
       style="fill:#00ffff;fill-opacity:0;stroke-width:0.264583"
       id="path4"
       cx="8.3039951"
       cy="-1.8368285"
       rx="3.4440532"
       ry="4.2093983" /><ellipse
       style="fill:#00ffff;fill-opacity:0;stroke-width:0.264583"
       id="path5"
       cx="16.18705"
       cy="10.351293"
       rx="1.2245523"
       ry="6.3714986" /><path
       id="path6"
       style="fill:#00ffff;fill-opacity:0;stroke-width:0.264583"
       d="M 3.6927979,1.0330119 A 2.1238327,1.5306903 0 0 0 1.5688965,2.5636678 2.1238327,1.5306903 0 0 0 2.2727295,3.7020996 C 2.2462493,3.3999105 2.37896,3.1348921 2.6236125,2.9827637 2.6489955,2.9436081 2.6752474,2.9053172 2.7026774,2.868042 2.7919589,2.7467154 2.8851685,2.6253697 2.9987834,2.5264608 3.143586,2.4004009 3.3143908,2.3077423 3.4721395,2.1983154 3.7304707,2.1460291 3.9423413,2.0671183 4.1615031,2.074292 4.2930002,2.078592 4.427342,2.113744 4.5754313,2.2045166 4.6332442,2.1982604 4.6914146,2.1939722 4.7495809,2.1921143 4.8379994,1.8990146 5.0808226,1.6952836 5.4043213,1.6572632 A 2.1238327,1.5306903 0 0 0 3.6927979,1.0330119 Z m 0.3141927,1.298112 c -0.0042,7.373e-4 -0.010185,0.00422 -0.011886,0.00568 v 5.167e-4 h 5.167e-4 c 0.00586,-0.00182 0.011734,-0.00379 0.01757,-0.00568 -0.00124,-2.24e-4 -0.00238,-2.929e-4 -0.00362,-5.167e-4 h -5.168e-4 c -1.862e-4,6.7e-6 -6.298e-4,1.09e-5 -0.00103,0 h -5.168e-4 z m 0.9213907,1.0598836 c -0.00811,0.00181 -0.016385,0.00378 -0.024288,0.00568 -0.011892,0.01646 -0.02855,0.025507 -0.050643,0.024288 -0.024561,0.025116 -0.047878,0.048432 -0.058911,0.031006 -0.00367,-0.0058 -0.00705,-0.011861 -0.010335,-0.018087 -0.016179,0.00939 -0.032413,0.018886 -0.047542,0.029456 -0.015013,0.00984 -0.037674,0.024494 -0.064079,0.041858 0.1338816,0.07424 0.2680278,0.1486675 0.4025594,0.2216919 A 2.1238327,1.5306903 0 0 0 5.2808146,3.5811768 c -9.876e-4,-0.00927 -0.00232,-0.018736 -0.0031,-0.027905 -0.034512,-0.033404 -0.067134,-0.066805 -0.098185,-0.1002523 -0.079892,0.055651 -0.1689915,0.06367 -0.2191081,-0.057361 -0.00995,0.00209 -0.019703,0.00409 -0.029456,0.00672 -7.816e-4,-0.00443 -0.00148,-0.00817 -0.00258,-0.011369 z" /><path
       id="path7"
       style="fill:#ffffff;fill-opacity:1;stroke-width:1.07116"
       d="m 5.5810748,0.11195907 c -0.1452693,0.004912 -0.3331974,0.0322985 -0.4368711,0.0677366 -0.089791,0.0306886 -0.093989,0.0304926 -0.1980209,0.003824 -0.1031692,-0.0264465 -0.2400998,-0.0220063 -0.3286739,0.0103801 -0.050507,0.0184661 -0.070983,0.0197441 -0.1888344,0.0142028 -0.1489546,-0.007003 -0.1852174,7.8671e-4 -0.3138733,0.0639127 l -0.072981,0.0355057 -0.1383084,-0.012564 c -0.1508028,-0.0137934 -0.2328844,-0.006444 -0.3623579,0.0322296 -0.036068,0.0107738 -0.099342,0.0293037 -0.1408603,0.0415158 -0.076799,0.0225884 -0.2556121,0.11463749 -0.3342882,0.17207246 -0.063249,0.0461751 -0.1565786,0.14496921 -0.1898552,0.20047791 -0.02196,0.03663 -0.054506,0.066031 -0.1347358,0.1229091 -0.095503,0.067703 -0.1120791,0.076071 -0.1760754,0.086857 -0.095784,0.016139 -0.1713261,0.057773 -0.2582439,0.14257416 -0.071444,0.069719 -0.073731,0.071013 -0.1240183,0.071013 -0.062244,0 -0.1313279,0.015314 -0.1709716,0.038238 -0.016194,0.00937 -0.046841,0.027487 -0.067878,0.039877 -0.0739,0.04353 -0.1497588,0.1300406 -0.1903654,0.2168659 -0.020842,0.044565 -0.038277,0.089586 -0.038277,0.099966 0,0.018861 -0.02583,0.03955 -0.117894,0.095049 -0.081473,0.049118 -0.1594291,0.1383055 -0.2026135,0.2316151 -0.040102,0.086656 -0.053347,0.1035518 -0.120956,0.1518607 -0.086434,0.061757 -0.1897821,0.2016821 -0.233236,0.3162858 -0.024701,0.065145 -0.052007,0.097453 -0.13575646,0.1611472 -0.023929,0.018196 -0.07789,0.073877 -0.11993543,0.1234552 C 0.71066801,2.7268429 0.66760892,2.8053818 0.5749237,3.022988 0.5444116,3.094611 0.5269496,3.2065393 0.5269496,3.3267096 c 0,0.1063808 -0.00147,0.1134269 -0.033174,0.1808126 -0.044883,0.095386 -0.077569,0.2040707 -0.085231,0.2829639 -0.00506,0.051826 -0.014295,0.078346 -0.042871,0.1261863 -0.077269,0.1293668 -0.1123327,0.2671723 -0.0985,0.3856613 0.00593,0.050828 0.00451,0.05722 -0.027049,0.1032443 -0.097792,0.1425814 -0.1476789,0.3540774 -0.1474957,0.6292929 8.29e-5,0.1338339 0.034196,0.4217347 0.062264,0.5271427 0.039674,0.1489611 0.1292267,0.3244048 0.2128215,0.4162516 l 0.046953,0.051349 0.00816,0.1103448 c 0.011645,0.1590319 0.048389,0.2612692 0.12810119,0.3561629 0.0422731,0.050276 0.0449129,0.056574 0.0520576,0.1305564 0.008345,0.086034 0.0258761,0.1462502 0.0612438,0.2108572 0.0128699,0.023504 0.0259844,0.064553 0.0290905,0.091227 0.007871,0.06742 0.0544839,0.2166022 0.0944174,0.3009902 0.043416,0.091753 0.091046,0.1582084 0.14034973,0.1961081 0.035709,0.02745 0.040786,0.036677 0.051037,0.093956 0.014457,0.080596 0.10974738,0.3026855 0.16688878,0.3883923 0.090063,0.1350897 0.163027,0.2029103 0.314894,0.2944352 0.036446,0.021964 0.065456,0.051248 0.09748,0.097781 0.042779,0.062159 0.080394,0.097858 0.1985313,0.1890068 0.049056,0.037855 0.161105,0.08904 0.1954691,0.08904 0.024564,0 0.1040917,0.04285 0.1229975,0.066645 0.00821,0.010317 0.022125,0.040078 0.031132,0.066099 0.034319,0.099631 0.1082231,0.1966573 0.2398706,0.3146466 0.081831,0.073338 0.139645,0.1019869 0.3501092,0.1731651 0.069,0.023327 0.088204,0.035475 0.1429018,0.089587 0.071997,0.071223 0.1698057,0.1330316 0.2429328,0.1534996 0.035129,0.00983 0.064695,0.028099 0.098499,0.060635 0.1297683,0.1248811 0.3046149,0.1978776 0.5430264,0.2272446 0.063747,0.0078 0.1092004,0.02092 0.1653577,0.04698 0.042538,0.01975 0.098584,0.04206 0.1245285,0.04971 0.067347,0.01974 0.2119979,0.01729 0.2970315,-0.005 0.051686,-0.01352 0.078334,-0.0157 0.09901,-0.0088 0.1324749,0.04474 0.1649217,0.05074 0.2643682,0.05135 0.070421,4.33e-4 0.1265354,-0.005 0.1745441,-0.01749 l 0.070941,-0.01857 0.061244,0.02786 c 0.033737,0.01535 0.082762,0.03345 0.1087074,0.04042 0.08665,0.02315 0.2154717,0.01825 0.3154045,-0.01202 0.096542,-0.02919 0.077158,-0.03001 0.2551815,0.0066 0.098008,0.02015 0.2666955,0.02343 0.3649098,0.0066 0.1679399,-0.02883 0.2580456,-0.06598 0.3868562,-0.158955 0.07164,-0.05171 0.112171,-0.09783 0.1454536,-0.1649701 0.018606,-0.037535 0.027882,-0.044094 0.09748,-0.070469 0.065443,-0.02479 0.097153,-0.030173 0.217925,-0.0366 0.1445614,-0.00761 0.1889469,-0.016846 0.3317359,-0.070438 0.1002062,-0.037567 0.1864594,-0.084199 0.2393659,-0.1294249 0.07639,-0.06529 0.1486851,-0.1496549 0.1735235,-0.2021169 0.022705,-0.04795 0.028071,-0.052733 0.078596,-0.068282 0.029828,-0.00917 0.067107,-0.023374 0.082679,-0.031682 0.057478,-0.03061 0.1318007,-0.1005863 0.1755647,-0.1649719 0.044195,-0.065017 0.046352,-0.066487 0.1061556,-0.079208 0.1809481,-0.038505 0.3549778,-0.2054253 0.4200289,-0.4031495 l 0.017353,-0.05244 0.1076866,-0.057357 c 0.096373,-0.05092 0.1163687,-0.066528 0.192406,-0.1491329 0.053166,-0.057751 0.09444,-0.1123915 0.1102384,-0.1469446 0.05708,-0.1248755 0.075245,-0.1752265 0.080638,-0.223421 0.0053,-0.047973 0.00882,-0.053892 0.067878,-0.1043365 C 9.1710915,7.4859967 9.2458497,7.390263 9.3138724,7.2537905 9.4122594,7.0563898 9.4531105,6.9257467 9.453712,6.8058558 9.4539194,6.7642818 9.460932,6.7435478 9.49301,6.689502 9.549375,6.594497 9.56702,6.5306117 9.573648,6.4016219 l 0.0056,-0.1108912 0.043381,-0.057356 C 9.7409,6.0766954 9.7837413,5.9451158 9.783908,5.7373643 9.7839702,5.6704993 9.788378,5.6388553 9.801771,5.6106315 9.824001,5.5638585 9.852031,5.4527391 9.874751,5.3211127 9.889031,5.2382037 9.892511,5.1684615 9.892621,4.9321736 9.892754,4.6563903 9.891321,4.6385538 9.866591,4.515376 9.852421,4.444662 9.832641,4.3606115 9.822701,4.3285544 9.812701,4.2964974 9.793401,4.2252032 9.779829,4.1701386 9.766249,4.1150744 9.7414752,4.0452402 9.7247135,4.0150003 9.635611,3.8542982 9.6434377,3.8825189 9.6450968,3.7200189 9.6470276,3.529657 9.6307149,3.4651059 9.5353687,3.2857405 9.5279872,3.2718534 9.512301,3.2172441 9.5006641,3.1644704 9.4466858,2.9196703 9.3992416,2.7687145 9.346024,2.6744736 9.3334853,2.6522516 9.3090912,2.6069295 9.2919255,2.5739613 9.2527052,2.4986461 9.1310046,2.3608093 9.0387853,2.2866276 8.969935,2.2312442 8.9676174,2.2281763 8.9382439,2.1429607 8.8889764,2.0000413 8.8568277,1.9545688 8.7096011,1.8228513 8.6827637,1.7988385 8.6505852,1.7581558 8.6381503,1.7321718 8.591055,1.633804 8.5020131,1.5345225 8.4227769,1.4918165 8.3771384,1.4672161 8.3557172,1.4490236 8.3487743,1.4295426 8.3103854,1.3222237 8.2756424,1.2675671 8.1844374,1.1700682 8.0445109,1.0204952 7.9261274,0.93970184 7.807279,0.91277904 7.7518315,0.90021774 7.6788653,0.86035604 7.6388591,0.82046074 7.5843776,0.76613414 7.439847,0.71391974 7.3015091,0.69919054 7.1570548,0.68381044 7.1618188,0.68586074 7.1136954,0.63910174 7.0329458,0.56064575 6.8693161,0.49816621 6.7447027,0.49816621 c -0.091251,0 -0.1585947,-0.0299667 -0.2015935,-0.0890407 C 6.429802,0.25346086 6.1300552,0.12507116 5.8755542,0.12343055 5.822138,0.123087 5.7465744,0.11913399 5.7076447,0.11468991 c -0.034248,-0.003912 -0.078146,-0.004369 -0.1265699,-0.002731 z m 5.102e-4,0.62820107 c 0.1260102,0 0.1889152,0.00563 0.3138734,0.027313 0.1730619,0.03002 0.1576472,0.021273 0.2449743,0.1338341 C 6.2359387,1.0244082 6.4801892,1.1335021 6.662024,1.1340147 h 0.081657 l 0.064816,0.054081 c 0.1150055,0.096149 0.1888852,0.1259877 0.3378606,0.1349263 l 0.1041141,0.00599 0.075534,0.056811 c 0.087434,0.065945 0.1473802,0.095529 0.2255805,0.1108911 0.070868,0.013919 0.1807183,0.067943 0.2046557,0.1005127 0.010119,0.013764 0.024788,0.050327 0.033174,0.081393 0.00836,0.031066 0.025591,0.07788 0.037768,0.1037893 0.029092,0.061924 0.1179914,0.1638077 0.1725028,0.1977468 0.086324,0.053748 0.1095609,0.075335 0.1372876,0.1267328 0.032197,0.059692 0.1220357,0.1595544 0.1857723,0.206487 0.035534,0.026162 0.045496,0.040528 0.054608,0.079208 0.013345,0.056715 0.044261,0.1241201 0.09901,0.2146809 0.0483,0.07989 0.070498,0.1023521 0.1704612,0.1742576 0.1177395,0.084688 0.1453377,0.1194849 0.1903654,0.2414477 0.05707,0.1545721 0.067818,0.1965826 0.078596,0.3031754 0.013719,0.1356777 0.0155,0.1411576 0.071962,0.2632982 l 0.050527,0.1097986 -0.00766,0.083577 c -0.015884,0.1677394 0.020516,0.3109844 0.1122799,0.4419259 0.013625,0.019442 0.032022,0.06281 0.04134,0.096142 0.00926,0.033331 0.031016,0.090077 0.047975,0.1261867 0.024226,0.051592 0.035124,0.096533 0.052056,0.2108569 0.020378,0.1375381 0.021364,0.1575739 0.012249,0.3638107 l -0.0097,0.2179583 -0.038277,0.081939 c -0.049615,0.105418 -0.067584,0.1775829 -0.074002,0.3020808 -0.00281,0.055552 -0.0068,0.1113745 -0.00919,0.1240014 -0.00239,0.012627 -0.032578,0.055612 -0.066857,0.095595 -0.093141,0.1086346 -0.1222448,0.19255 -0.132184,0.3807444 -0.00586,0.1103916 -0.00748,0.117919 -0.036746,0.1589622 -0.052773,0.074006 -0.089313,0.2016589 -0.089313,0.3141007 0,0.1146093 -0.1324101,0.3377077 -0.2465053,0.4151591 -0.022777,0.015459 -0.058536,0.049205 -0.079617,0.074839 -0.050673,0.061613 -0.1253496,0.2230859 -0.1321839,0.2862412 -0.003,0.027161 -0.00712,0.058473 -0.00919,0.069922 -0.00481,0.026076 -0.074457,0.080608 -0.1153421,0.090133 -0.060018,0.013973 -0.1773989,0.092495 -0.2296634,0.1534996 -0.038613,0.045071 -0.099549,0.1640375 -0.1163628,0.2277912 -0.013025,0.049391 -0.0189,0.058599 -0.040829,0.063367 -0.1489329,0.0323 -0.2240534,0.072005 -0.2995831,0.1584199 -0.031133,0.035628 -0.067636,0.080772 -0.081148,0.099965 -0.020066,0.028503 -0.03438,0.036894 -0.079105,0.046979 -0.1143767,0.025682 -0.25819,0.1517344 -0.3240806,0.2840603 -0.03212,0.064496 -0.035789,0.067247 -0.1520882,0.1032431 -0.082739,0.025634 -0.1036703,0.026574 -0.2000624,0.010379 -0.1146356,-0.019283 -0.2237226,0.010431 -0.3169354,0.086309 -0.016907,0.013764 -0.054795,0.031675 -0.08421,0.039877 -0.1128787,0.031471 -0.2131088,0.1138757 -0.2766074,0.2277913 -0.036736,0.065903 -0.069064,0.086519 -0.1490262,0.09505 -0.029735,0.00321 -0.062598,0.00708 -0.072981,0.00875 -0.028542,0.00449 -0.1018293,-0.010275 -0.1326944,-0.026767 -0.057888,-0.030929 -0.1234637,-0.042887 -0.2306842,-0.042609 -0.09627,2.442e-4 -0.1153909,0.00292 -0.1704613,0.027312 -0.034147,0.015115 -0.069286,0.027858 -0.078086,0.027858 -0.00877,0 -0.038159,-0.01344 -0.065326,-0.029498 -0.089017,-0.052637 -0.1387492,-0.064089 -0.2505885,-0.058994 -0.075345,0.00342 -0.1175736,0.010872 -0.1684198,0.030044 l -0.067882,0.025681 -0.09748,-0.036053 C 4.4897356,9.1249968 4.4637039,9.1198791 4.390908,9.1198172 4.3376568,9.1197728 4.2833978,9.1263884 4.244944,9.1378431 4.1651431,9.161615 4.1434944,9.1604421 4.0857107,9.1291056 4.0163115,9.0914604 3.9323006,9.073556 3.8274667,9.0733855 3.7093874,9.0731972 3.6578123,9.0530341 3.5855545,8.9794286 3.5072517,8.8996778 3.405978,8.8436082 3.3099583,8.8264751 3.2878547,8.8225301 3.2606744,8.8041265 3.2298314,8.7729415 3.1750736,8.7175754 3.0497154,8.6284583 2.9766912,8.592675 2.9484348,8.5788229 2.8910081,8.5607788 2.8485902,8.5527979 2.74362,8.5330394 2.7140157,8.5119771 2.6888463,8.4380828 2.6510207,8.3270442 2.5644227,8.2185675 2.4137605,8.0939379 2.2951575,7.9958245 2.2409649,7.9678642 2.1299986,7.9475398 2.1012264,7.9422755 2.0848608,7.92703 2.0279259,7.8530365 1.948307,7.7495619 1.9124282,7.7184208 1.8273533,7.6755012 1.77828,7.6507391 1.7490608,7.625751 1.693638,7.5613326 1.609525,7.4635714 1.6038815,7.4528562 1.5925861,7.3777885 1.5878031,7.346022 1.5735753,7.2920972 1.5609438,7.2576108 1.5331091,7.1815918 1.4359888,7.034189 1.3838476,6.9893962 1.3320905,6.9449352 1.3006588,6.876453 1.3006588,6.8074911 c 0,-0.062122 -0.025408,-0.1485129 -0.066347,-0.2261525 -0.018163,-0.034464 -0.02807,-0.067601 -0.02807,-0.093411 0,-0.1281736 -0.049735,-0.2538 -0.1418809,-0.358894 L 1.0291463,6.0886096 1.0245573,5.9771723 C 1.0211843,5.8929393 1.0143551,5.8505027 0.99699191,5.8007302 0.97262061,5.7308902 0.89213421,5.6039348 0.84796581,5.5658374 0.83332591,5.5532134 0.80065041,5.4995264 0.77498391,5.4467524 L 0.72803051,5.3511564 0.71118851,5.1758065 C 0.69990301,5.0573494 0.69652871,4.9728849 0.70098621,4.9152389 c 0.006169,-0.079305 0.009604,-0.08982 0.0479746,-0.1480368 0.0911524,-0.1383199 0.13280676,-0.2725049 0.12452856,-0.4031413 -0.00409,-0.064725 -0.00263,-0.07059 0.032153,-0.1311028 0.018802,-0.032714 0.034357,-0.063578 0.036237,-0.071013 v -5.462e-4 -5.464e-4 c 7.16e-4,-0.00493 0.0071,-0.015261 0.014291,-0.022943 0.021431,-0.022937 0.042268,-0.1102097 0.048995,-0.2053945 0.00478,-0.06774 0.010467,-0.092744 0.027559,-0.1169001 0.082415,-0.1164747 0.133295,-0.379302 0.09799,-0.5069308 -0.010022,-0.036252 -0.00839,-0.043341 0.037256,-0.1343805 0.050019,-0.099787 0.1143374,-0.1757117 0.1796472,-0.2119495 0.045462,-0.025227 0.146649,-0.13457 0.1898551,-0.2053945 0.019683,-0.032264 0.046732,-0.093766 0.060223,-0.1371119 0.023481,-0.075473 0.026239,-0.079884 0.071962,-0.1065207 0.026267,-0.015298 0.06278,-0.042285 0.081148,-0.059543 0.053778,-0.050537 0.1334041,-0.1624678 0.1597437,-0.2256061 0.023316,-0.055881 0.027161,-0.060497 0.09799,-0.097781 0.040759,-0.021453 0.093054,-0.058426 0.1158525,-0.082487 0.053813,-0.056779 0.1234415,-0.1682185 0.1454534,-0.2321615 l 0.017352,-0.050256 0.061244,-0.00599 c 0.1209228,-0.011649 0.205627,-0.052506 0.3128469,-0.1513186 0.045547,-0.041972 0.057135,-0.047201 0.1240184,-0.057903 0.092973,-0.014874 0.1989055,-0.062079 0.2684501,-0.119085 0.1789287,-0.1466751 0.2112538,-0.1759374 0.248547,-0.22506 0.022684,-0.029877 0.056313,-0.077521 0.074514,-0.1059746 0.03593,-0.056169 0.074962,-0.082087 0.2112904,-0.13820426 0.068704,-0.028284 0.085307,-0.031014 0.1985313,-0.032229 0.067831,-7.295e-4 0.169836,0.0027 0.2271117,0.00711 0.090827,0.00699 0.1134403,0.00498 0.1750545,-0.013109 0.038852,-0.011409 0.09667,-0.03354 0.1286118,-0.049711 0.057965,-0.029338 0.058222,-0.029802 0.1224877,-0.015294 0.094043,0.02123 0.1877617,0.011715 0.2914174,-0.030592 0.082089,-0.033505 0.085895,-0.034349 0.1270805,-0.020212 0.04714,0.016184 0.089319,0.029072 0.1459638,0.044794 0.08349,0.023173 0.2345618,-0.011851 0.3700134,-0.085763 0.047481,-0.025909 0.055104,-0.026767 0.2072074,-0.026767 z" /></g><g
     inkscape:groupmode="layer"
     id="layer2"
     inkscape:label="Capa 2"
     style="fill:#5555ff" /></svg>
