<?xml version="1.0" encoding="UTF-8" standalone="no"?>
<!-- Created with Inkscape (http://www.inkscape.org/) -->

<svg
   width="589.88861mm"
   height="76.621002mm"
   viewBox="0 0 589.88861 76.621002"
   version="1.1"
   id="svg1"
   inkscape:version="1.4.2 (f4327f4, 2025-05-13)"
   sodipodi:docname="Logotipo.svg"
   inkscape:export-filename="Logotipo.svg"
   inkscape:export-xdpi="600"
   inkscape:export-ydpi="600"
   xmlns:inkscape="http://www.inkscape.org/namespaces/inkscape"
   xmlns:sodipodi="http://sodipodi.sourceforge.net/DTD/sodipodi-0.dtd"
   xmlns="http://www.w3.org/2000/svg"
   xmlns:svg="http://www.w3.org/2000/svg">
  <sodipodi:namedview
     id="namedview1"
     pagecolor="#ffffff"
     bordercolor="#000000"
     borderopacity="0.25"
     inkscape:showpageshadow="2"
     inkscape:pageopacity="0.0"
     inkscape:pagecheckerboard="0"
     inkscape:deskcolor="#d1d1d1"
     inkscape:document-units="mm"
     inkscape:zoom="0.28582991"
     inkscape:cx="1318.9662"
     inkscape:cy="-59.475931"
     inkscape:window-width="1916"
     inkscape:window-height="2041"
     inkscape:window-x="1911"
     inkscape:window-y="0"
     inkscape:window-maximized="0"
     inkscape:current-layer="g8" />
  <defs
     id="defs1" />
  <g
     inkscape:label="Capa 1"
     inkscape:groupmode="layer"
     id="layer1"
     transform="translate(155.89072,-30.923793)">
    <g
       id="g8"
       style="fill:#ffffff">
      <g
         id="g9"
         style="fill:#ffffff"
         transform="matrix(9.5886448,0,0,9.5886448,-674.7539,-923.66419)">
        <path
           style="font-size:10.5833px;font-family:Memoir;-inkscape-font-specification:'Memoir, Normal';fill:#ffffff;stroke:#000000;stroke-width:0.265;stroke-opacity:0"
           d="m 54.529161,101.32692 q 0,-0.71967 0.507999,-1.17475 0.518581,-0.465666 1.396995,-0.465666 0.93133,0 1.799161,0.349246 l 0.211666,1.397 h -0.08467 q -1.068914,-0.9525 -1.936744,-0.9525 -0.412749,0 -0.666748,0.23283 -0.243416,0.23284 -0.243416,0.5715 0,0.33867 0.169333,0.61383 0.179916,0.26459 0.613831,0.68792 l 1.174746,1.15358 q 0.497416,0.48683 0.751415,0.91016 0.264582,0.41275 0.264582,1.00541 0,0.80434 -0.518581,1.28058 -0.518582,0.47625 -1.460496,0.47625 -0.709081,0 -1.174746,-0.15875 -0.455082,-0.16933 -0.857247,-0.39158 l -0.211666,-1.51341 h 0.08467 q 0.592665,0.635 1.100663,0.9525 0.518582,0.31749 1.068913,0.31749 0.465666,0 0.719665,-0.24341 0.264582,-0.24342 0.264582,-0.73025 0,-0.381 -0.179916,-0.67733 -0.169333,-0.29633 -0.550331,-0.66675 l -1.15358,-1.10066 q -0.539748,-0.508 -0.814914,-0.93133 -0.275166,-0.42333 -0.275166,-0.94191 z"
           id="text1"
           aria-label="s" />
        <path
           style="font-size:10.5833px;font-family:Memoir;-inkscape-font-specification:'Memoir, Normal';fill:#ffffff;stroke:#000000;stroke-width:0.265;stroke-opacity:0"
           d="m 58.966123,106.75615 q 0,0.26458 -0.0635,0.56091 l 0.03175,0.0212 q 0.190499,-0.0847 1.185329,-0.0847 h 0.539749 q 1.672161,0 1.92616,0.0529 l 0.04233,-0.21167 0.0635,-0.26458 q 0.08467,-0.30691 0.1905,-0.52916 l -0.02117,-0.0318 q -0.412749,0.0847 -1.206496,0.10583 l -1.111247,0.0212 q -0.349249,0 -0.486831,-0.127 -0.137583,-0.13759 -0.137583,-0.47625 v -5.4504 q 0,-0.26458 0.0635,-0.560917 l -0.03175,-0.02117 q -0.137583,0.04233 -0.507999,0.07408 -0.370415,-0.03175 -0.507998,-0.07408 l -0.03175,0.02117 q 0.0635,0.296337 0.0635,0.560917 z"
           id="text2"
           aria-label="L" />
        <path
           style="font-size:10.5833px;font-family:Memoir;-inkscape-font-specification:'Memoir, Normal';fill:#ffffff;stroke:#000000;stroke-width:0.265;stroke-opacity:0"
           d="m 66.582472,107.41231 q -1.079496,0 -1.936744,-0.48683 -0.846664,-0.49741 -1.333495,-1.37583 -0.476249,-0.889 -0.476249,-2.02141 0,-1.10066 0.476249,-1.97908 0.486831,-0.87841 1.333495,-1.36524 0.857248,-0.497416 1.936744,-0.497416 1.079497,0 1.926161,0.497416 0.857247,0.48683 1.333495,1.36524 0.486832,0.87842 0.486832,1.97908 0,1.13241 -0.486832,2.02141 -0.476248,0.87842 -1.333495,1.37583 -0.846664,0.48683 -1.926161,0.48683 z m 2.751658,-3.6089 q 0,-0.93133 -0.402165,-1.68275 -0.391582,-0.75141 -1.068914,-1.17474 -0.677331,-0.43392 -1.492245,-0.43392 -0.740831,0 -1.322912,0.33867 -0.582082,0.33866 -0.910164,0.97366 -0.317499,0.62441 -0.317499,1.47108 0,0.92075 0.359832,1.67216 0.359832,0.74083 1.02658,1.18533 0.677331,0.43392 1.587495,0.43392 0.740831,0 1.312329,-0.33867 0.582082,-0.33867 0.899581,-0.96308 0.328082,-0.635 0.328082,-1.48166 z"
           id="text3"
           aria-label="O" />
        <path
           style="font-size:10.5833px;font-family:Memoir;-inkscape-font-specification:'Memoir, Normal';fill:#ffffff;stroke:#000000;stroke-width:0.265;stroke-opacity:0"
           d="m 71.691924,100.92476 q -0.201083,-0.55033 -0.338665,-0.81492 -0.127,-0.264579 -0.148167,-0.296329 l 0.02117,-0.03175 q 0.296332,0.0635 0.539748,0.0635 0.296333,0 0.560915,-0.05292 0.02117,0.08467 0.07408,0.370419 0.0635,0.27517 0.232833,0.74083 l 1.523995,4.1169 q 0.116416,0.3175 0.190499,0.43392 0.07408,0.11642 0.243416,0.11642 0.169333,0 0.285749,-0.127 0.127,-0.13759 0.264583,-0.41275 l 0.613831,-1.24883 q 0.169333,-0.32808 0.211666,-0.46567 0.05292,-0.14816 0.05292,-0.29633 0,-0.14817 -0.05292,-0.29633 -0.05292,-0.14817 -0.158749,-0.35983 -0.09525,-0.21167 -0.137583,-0.28575 l -0.560915,-1.18533 q -0.222249,-0.48683 -0.391582,-0.75142 -0.15875,-0.275166 -0.179916,-0.328082 l 0.02117,-0.03175 q 0.296333,0.0635 0.539749,0.0635 0.296332,0 0.560915,-0.05292 0.02117,0.0635 0.07408,0.338662 0.0635,0.27517 0.275165,0.762 l 0.105833,0.254 q 0.148167,0.37041 0.22225,0.47625 0.07408,0.10583 0.169333,0.10583 0.09525,0 0.158749,-0.0952 0.07408,-0.10583 0.222249,-0.45508 l 0.127,-0.29634 q 0.211666,-0.49741 0.275166,-0.76199 0.07408,-0.275165 0.08467,-0.328082 0.264583,0.05292 0.529165,0.05292 0.243416,0 0.518582,-0.0635 l 0.02117,0.03175 q -0.03175,0.05292 -0.201082,0.328082 -0.15875,0.27517 -0.380999,0.74083 l -0.539748,1.143 q -0.04233,0.0847 -0.15875,0.32808 -0.105833,0.23284 -0.158749,0.37042 -0.04233,0.13758 -0.04233,0.23283 0,0.14817 0.05292,0.30692 0.05292,0.14816 0.201083,0.45508 l 0.634998,1.30174 q 0.148166,0.29634 0.253999,0.42334 0.105833,0.127 0.275166,0.127 0.169332,0 0.275165,-0.127 0.116417,-0.13759 0.22225,-0.41275 l 1.523995,-4.12749 q 0.169333,-0.46566 0.222249,-0.74083 0.0635,-0.285752 0.08467,-0.370419 0.264583,0.05292 0.529165,0.05292 0.243416,0 0.518582,-0.0635 l 0.02117,0.03175 q -0.02117,0.04233 -0.15875,0.306919 -0.126999,0.254 -0.338665,0.80433 l -2.021411,5.24931 q -0.211666,0.55034 -0.285749,0.80433 -0.07408,0.24342 -0.04233,0.30692 l -0.02117,0.0318 q -0.275166,-0.0635 -0.518582,-0.0635 -0.243416,0 -0.518582,0.0635 l -0.02117,-0.0318 q 0.03175,-0.0635 -0.05292,-0.29633 -0.08467,-0.24342 -0.328082,-0.79375 l -0.571498,-1.28058 q -0.15875,-0.37041 -0.243416,-0.46566 -0.07408,-0.0952 -0.179916,-0.0952 -0.09525,0 -0.179916,0.10583 -0.08467,0.10583 -0.254,0.47625 l -0.582081,1.26999 q -0.243416,0.55034 -0.338666,0.78317 -0.08467,0.23283 -0.05292,0.29633 l -0.02117,0.0318 q -0.275166,-0.0635 -0.518582,-0.0635 -0.243415,0 -0.518581,0.0635 l -0.02117,-0.0318 q 0.03175,-0.0635 -0.04233,-0.30692 -0.07408,-0.25399 -0.275166,-0.80433 z"
           id="text4"
           aria-label="W" />
        <path
           style="font-size:10.5833px;font-family:Memoir;-inkscape-font-specification:'Memoir, Normal';fill:#ffffff;stroke:#000000;stroke-width:0.265;stroke-opacity:0"
           d="m 84.50521,107.25357 q -0.264582,0 -0.560915,0.0635 l -0.02117,-0.0318 q 0.08467,-0.1905 0.08467,-1.18533 v -5.10115 q 0,-0.99483 -0.08467,-1.185329 l 0.02117,-0.03175 q 0.296333,0.0635 0.560915,0.0635 h 0.211666 q 0.497415,0 0.825498,-0.03175 0.380998,-0.02117 0.613831,-0.02117 0.99483,0 1.523995,0.486839 0.539748,0.47624 0.539748,1.32291 0,0.30691 -0.137583,0.58208 -0.137582,0.26458 -0.412748,0.56091 -0.127,0.13759 -0.169333,0.22225 -0.04233,0.0847 -0.04233,0.15875 0,0.0952 0.07408,0.14817 0.08467,0.0529 0.370415,0.16933 0.423332,0.16934 0.709081,0.58208 0.28575,0.40217 0.28575,0.99483 0,0.65617 -0.317499,1.17475 -0.317499,0.51858 -0.899581,0.81491 -0.582081,0.29634 -1.333496,0.29634 -0.550331,0 -0.920747,-0.0318 -0.465665,-0.0212 -0.740831,-0.0212 z m 1.598078,-4.19099 q 0.497416,0 0.783165,-0.3175 0.296332,-0.32808 0.296332,-1.02658 0,-0.57149 -0.338666,-0.87841 -0.328082,-0.30691 -0.973663,-0.30691 -0.529165,0 -0.719665,0.16933 -0.190499,0.16933 -0.190499,0.58208 v 1.23825 q 0,0.28574 0.137583,0.41274 0.137583,0.127 0.423332,0.127 z m 0.22225,3.51366 q 0.666748,0 1.100663,-0.39158 0.433915,-0.39158 0.433915,-1.03717 0,-1.39699 -1.301746,-1.39699 h -1.068913 q -0.529165,0 -0.529165,0.56091 v 1.4605 q 0,0.3175 0.105833,0.48683 0.105833,0.16933 0.391582,0.24342 0.296333,0.0741 0.867831,0.0741 z"
           id="text5"
           aria-label="B" />
        <path
           style="font-size:10.5833px;font-family:Memoir;-inkscape-font-specification:'Memoir, Normal';fill:#ffffff;stroke:#000000;stroke-width:0.265;stroke-opacity:0"
           d="m 98.032619,106.17407 q 0.211666,0.53975 0.349249,0.80433 0.137583,0.26459 0.15875,0.30692 l -0.02117,0.0318 q -0.296332,-0.0635 -0.539748,-0.0635 -0.296333,0 -0.560915,0.0529 -0.02117,-0.0741 -0.08467,-0.34925 -0.0635,-0.27517 -0.243415,-0.762 l -0.275166,-0.70908 q -0.116417,-0.27517 -0.232833,-0.37042 -0.116416,-0.0953 -0.359832,-0.0953 h -2.349493 q -0.232832,0 -0.359832,0.0953 -0.126999,0.0952 -0.232832,0.37042 l -0.275166,0.70908 q -0.179916,0.47625 -0.243416,0.762 -0.05292,0.27516 -0.07408,0.34925 -0.264583,-0.0529 -0.529165,-0.0529 -0.243416,0 -0.518582,0.0635 l -0.02117,-0.0318 q 0.02117,-0.0423 0.158749,-0.30692 0.137583,-0.26458 0.349249,-0.80433 l 2.042577,-5.24931 q 0.211666,-0.55033 0.285749,-0.79375 0.08467,-0.243416 0.05292,-0.317499 l 0.02117,-0.03175 q 0.296332,0.0635 0.550332,0.0635 0.253999,0 0.550331,-0.0635 l 0.02117,0.03175 q -0.03175,0.07408 0.04233,0.317499 0.08467,0.24342 0.296332,0.79375 z m -2.08491,-1.94732 q 0.116416,0 0.1905,-0.0635 0.08467,-0.0635 0.08467,-0.17992 0,-0.10583 -0.04233,-0.20108 l -0.656165,-1.70391 q -0.148166,-0.39159 -0.232832,-0.508 -0.07408,-0.11642 -0.22225,-0.11642 -0.137583,0 -0.243416,0.127 -0.09525,0.11642 -0.232832,0.48683 l -0.645581,1.69333 q -0.04233,0.11642 -0.04233,0.22225 0,0.11642 0.07408,0.17992 0.07408,0.0635 0.179917,0.0635 z"
           id="text6"
           aria-label="A" />
        <path
           style="font-size:10.5833px;font-family:Memoir;-inkscape-font-specification:'Memoir, Normal';fill:#ffffff;stroke:#000000;stroke-width:0.265;stroke-opacity:0"
           d="m 102.76175,106.75615 q 0,0.26458 -0.0635,0.56091 l 0.0318,0.0212 q 0.1905,-0.0847 1.18533,-0.0847 h 0.53975 q 1.67216,0 1.92616,0.0529 l 0.0423,-0.21167 0.0635,-0.26458 q 0.0847,-0.30691 0.1905,-0.52916 l -0.0212,-0.0318 q -0.41275,0.0847 -1.20649,0.10583 l -1.11125,0.0212 q -0.34925,0 -0.48683,-0.127 -0.13758,-0.13759 -0.13758,-0.47625 v -5.4504 q 0,-0.26458 0.0635,-0.560917 l -0.0318,-0.02117 q -0.13759,0.04233 -0.508,0.07408 -0.37042,-0.03175 -0.508,-0.07408 l -0.0318,0.02117 q 0.0635,0.296337 0.0635,0.560917 z"
           id="text7"
           aria-label="L" />
        <path
           style="font-size:10.5833px;font-family:Memoir;-inkscape-font-specification:'Memoir, Normal';fill:#ffffff;stroke:#000000;stroke-width:0.265;stroke-opacity:0"
           d="m 111.56406,106.75615 q 0,0.26458 -0.0635,0.56091 l 0.0317,0.0212 q 0.1905,-0.0847 1.18533,-0.0847 h 0.53975 q 1.67216,0 1.92616,0.0529 l 0.0423,-0.21167 0.0635,-0.26458 q 0.0847,-0.30691 0.1905,-0.52916 l -0.0212,-0.0318 q -0.41275,0.0847 -1.20649,0.10583 l -1.11125,0.0212 q -0.34925,0 -0.48683,-0.127 -0.13758,-0.13759 -0.13758,-0.47625 v -5.4504 q 0,-0.26458 0.0635,-0.560917 l -0.0318,-0.02117 q -0.13759,0.04233 -0.508,0.07408 -0.37042,-0.03175 -0.508,-0.07408 l -0.0317,0.02117 q 0.0635,0.296337 0.0635,0.560917 z"
           id="text8"
           aria-label="L" />
      </g>
    </g>
  </g>
</svg>
